<svg xmlns="http://www.w3.org/2000/svg" version="1.1" xmlns:xlink="http://www.w3.org/1999/xlink" xmlns:svgjs="http://svgjs.dev/svgjs" width="2000" height="1500" viewBox="0 0 2000 1500"><rect width="2000" height="1500" fill="#000000"></rect><g transform="matrix(0.75,0,0,0.75,249.090909090909,434.3901959722299)"><svg viewBox="0 0 396 167" data-background-color="#14293a" preserveAspectRatio="xMidYMid meet" height="843" width="2000" xmlns="http://www.w3.org/2000/svg" xmlns:xlink="http://www.w3.org/1999/xlink"><g id="tight-bounds" transform="matrix(1,0,0,1,0.2400000000000091,-0.13608181472898195)"><svg viewBox="0 0 395.52 167.27216362945796" height="167.27216362945796" width="395.52"><g><svg viewBox="0 0 395.52 167.27216362945796" height="167.27216362945796" width="395.52"><g transform="matrix(1,0,0,1,0,99.44233185375703)"><svg viewBox="0 0 395.52 67.82983177570094" height="67.82983177570094" width="395.52"><g id="textblocktransform"><svg viewBox="0 0 395.52 67.82983177570094" height="67.82983177570094" width="395.52" id="textblock"><g><svg viewBox="0 0 395.52 67.82983177570094" height="67.82983177570094" width="395.52"><g transform="matrix(1,0,0,1,0,0)"><svg width="395.52" viewBox="1.98 -35.35 208.96 35.84" height="67.82983177570094" data-palette-color="#e9e4de"><path d="M7.84 0L7.84 0 2.22 0Q1.98 0 1.98-0.24L1.98-0.24 2.08-34.59Q2.08-34.79 2.27-34.79L2.27-34.79 11.89-34.79Q16.48-34.79 19.15-31.99 21.83-29.2 21.83-24.39L21.83-24.39Q21.83-20.87 20.43-18.26L20.43-18.26Q19.02-15.67 16.77-14.26 14.53-12.84 11.89-12.84L11.89-12.84 8.08-12.84 8.08-0.24Q8.08 0 7.84 0ZM11.89-28.86L11.89-28.86 8.08-28.81 8.08-18.9 11.89-18.9Q13.48-18.9 14.65-20.42 15.82-21.95 15.82-24.39L15.82-24.39Q15.82-26.34 14.77-27.6 13.72-28.86 11.89-28.86ZM30.66 0L30.66 0 25 0Q24.8 0 24.8-0.24L24.8-0.24 24.9-34.59Q24.9-34.79 25.1-34.79L25.1-34.79 35.2-34.79Q37.91-34.79 40.18-33.47L40.18-33.47Q42.45-32.15 43.81-29.93 45.16-27.71 45.16-24.9L45.16-24.9Q45.16-23.07 44.6-21.58L44.6-21.58Q44.04-20.09 43.3-19.07 42.55-18.04 41.94-17.55L41.94-17.55Q44.65-14.55 44.65-10.5L44.65-10.5 44.7-0.24Q44.7 0 44.46 0L44.46 0 38.79 0Q38.6 0 38.6-0.15L38.6-0.15 38.6-10.5Q38.6-12.3 37.33-13.62 36.06-14.94 34.2-14.94L34.2-14.94 30.91-14.94 30.86-0.24Q30.86 0 30.66 0ZM35.2-28.81L35.2-28.81 30.91-28.81 30.91-20.95 35.2-20.95Q36.74-20.95 37.95-22.09 39.16-23.24 39.16-24.9L39.16-24.9Q39.16-26.49 37.99-27.65 36.81-28.81 35.2-28.81ZM57.15 0.49L57.15 0.49Q54.49 0.49 52.24-0.88L52.24-0.88Q50.02-2.25 48.66-4.53 47.31-6.81 47.31-9.55L47.31-9.55 47.36-25.39Q47.36-28.17 48.7-30.4L48.7-30.4Q50.02-32.64 52.27-34 54.51-35.35 57.15-35.35L57.15-35.35Q59.88-35.35 62.06-34.01L62.06-34.01Q64.25-32.67 65.58-30.41 66.91-28.15 66.91-25.39L66.91-25.39 66.96-9.55Q66.96-6.81 65.64-4.54L65.64-4.54Q64.3-2.25 62.08-0.88 59.86 0.49 57.15 0.49ZM57.15-5.54L57.15-5.54Q58.66-5.54 59.79-6.77 60.91-8.01 60.91-9.55L60.91-9.55 60.86-25.39Q60.86-27.05 59.81-28.2 58.76-29.35 57.15-29.35L57.15-29.35Q55.61-29.35 54.51-28.22 53.41-27.1 53.41-25.39L53.41-25.39 53.41-9.55Q53.41-7.91 54.51-6.73 55.61-5.54 57.15-5.54ZM76.58 0L76.58 0 70.96 0Q70.72 0 70.72-0.24L70.72-0.24 70.82-34.59Q70.82-34.79 71.01-34.79L71.01-34.79 87.03-34.79Q87.27-34.79 87.27-34.59L87.27-34.59 87.27-28.96Q87.27-28.76 87.08-28.76L87.08-28.76 76.82-28.76 76.82-21 87.08-21Q87.27-21 87.27-20.75L87.27-20.75 87.32-15.09Q87.32-14.89 87.08-14.89L87.08-14.89 76.82-14.89 76.82-0.24Q76.82 0 76.58 0ZM101.02 0.49L101.02 0.49Q98.35 0.49 96.11-0.88L96.11-0.88Q93.89-2.25 92.53-4.53 91.18-6.81 91.18-9.55L91.18-9.55 91.23-25.39Q91.23-28.17 92.57-30.4L92.57-30.4Q93.89-32.64 96.13-34 98.38-35.35 101.02-35.35L101.02-35.35Q103.75-35.35 105.92-34.01L105.92-34.01Q108.12-32.67 109.45-30.41 110.78-28.15 110.78-25.39L110.78-25.39 110.83-9.55Q110.83-6.81 109.51-4.54L109.51-4.54Q108.17-2.25 105.95-0.88 103.73 0.49 101.02 0.49ZM101.02-5.54L101.02-5.54Q102.53-5.54 103.65-6.77 104.78-8.01 104.78-9.55L104.78-9.55 104.73-25.39Q104.73-27.05 103.68-28.2 102.63-29.35 101.02-29.35L101.02-29.35Q99.48-29.35 98.38-28.22 97.28-27.1 97.28-25.39L97.28-25.39 97.28-9.55Q97.28-7.91 98.38-6.73 99.48-5.54 101.02-5.54ZM120.45 0L120.45 0 114.78 0Q114.59 0 114.59-0.24L114.59-0.24 114.68-34.59Q114.68-34.79 114.88-34.79L114.88-34.79 124.99-34.79Q127.7-34.79 129.97-33.47L129.97-33.47Q132.24-32.15 133.59-29.93 134.95-27.71 134.95-24.9L134.95-24.9Q134.95-23.07 134.39-21.58L134.39-21.58Q133.83-20.09 133.08-19.07 132.34-18.04 131.73-17.55L131.73-17.55Q134.44-14.55 134.44-10.5L134.44-10.5 134.48-0.24Q134.48 0 134.24 0L134.24 0 128.58 0Q128.38 0 128.38-0.15L128.38-0.15 128.38-10.5Q128.38-12.3 127.11-13.62 125.84-14.94 123.99-14.94L123.99-14.94 120.69-14.94 120.64-0.24Q120.64 0 120.45 0ZM124.99-28.81L124.99-28.81 120.69-28.81 120.69-20.95 124.99-20.95Q126.53-20.95 127.73-22.09 128.94-23.24 128.94-24.9L128.94-24.9Q128.94-26.49 127.77-27.65 126.6-28.81 124.99-28.81ZM144.59 0L144.59 0 138.93 0Q138.68 0 138.68-0.24L138.68-0.24 138.73-34.59Q138.73-34.79 138.93-34.79L138.93-34.79 144.54-34.79Q144.74-34.79 144.74-34.59L144.74-34.59 144.78-0.24Q144.78 0 144.59 0ZM165.53 0L165.53 0 149.37 0Q149.18 0 149.18-0.24L149.18-0.24 149.23-34.59Q149.23-34.79 149.42-34.79L149.42-34.79 165.49-34.79Q165.68-34.79 165.68-34.55L165.68-34.55 165.68-28.96Q165.68-28.76 165.49-28.76L165.49-28.76 155.23-28.76 155.23-20.95 165.49-20.95Q165.68-20.95 165.68-20.75L165.68-20.75 165.73-15.09Q165.73-14.89 165.53-14.89L165.53-14.89 155.23-14.89 155.23-6.15 165.53-6.15Q165.73-6.15 165.73-5.91L165.73-5.91 165.73-0.2Q165.73 0 165.53 0ZM175.61 0L175.61 0 170.61 0Q170.22 0 170.22-0.34L170.22-0.34 170.17-34.4Q170.17-34.79 170.56-34.79L170.56-34.79 175.08-34.79 183.52-15.09 183.28-34.4Q183.28-34.79 183.72-34.79L183.72-34.79 188.68-34.79Q188.97-34.79 188.97-34.4L188.97-34.4 189.02-0.29Q189.02 0 188.77 0L188.77 0 184.38 0 175.71-18.41 176.08-0.39Q176.08 0 175.61 0ZM204.03 0L204.03 0 198.39 0Q198.17 0 198.17-0.24L198.17-0.24 198.17-28.76 191.68-28.76Q191.43-28.76 191.43-29L191.43-29 191.48-34.59Q191.48-34.79 191.68-34.79L191.68-34.79 210.67-34.79Q210.94-34.79 210.94-34.59L210.94-34.59 210.94-29Q210.94-28.76 210.74-28.76L210.74-28.76 204.18-28.76 204.23-0.24Q204.23 0 204.03 0Z" opacity="1" transform="matrix(1,0,0,1,0,0)" fill="#ffffff" class="wordmark-text-0" data-fill-palette-color="primary" id="text-0"></path></svg></g></svg></g></svg></g></svg></g><g transform="matrix(1,0,0,1,167.71506576760942,0)"><svg viewBox="0 0 60.08986846478114 83.42933648747665" height="83.42933648747665" width="60.08986846478114"><g><svg xmlns="http://www.w3.org/2000/svg" xmlns:xlink="http://www.w3.org/1999/xlink" version="1.1" x="0" y="0" viewBox="11.799999999999997 9.3 81.10000000000001 112.60000000000001" enable-background="new 0 0 108.3 129.2" xml:space="preserve" height="83.42933648747665" width="60.08986846478114" class="icon-icon-0" data-fill-palette-color="accent" id="icon-0"><g fill="#99abc1" data-fill-palette-color="accent"><g fill="#99abc1" data-fill-palette-color="accent"><g fill="#99abc1" data-fill-palette-color="accent"><g fill="#99abc1" data-fill-palette-color="accent"><path fill="#ffffff" d="M71 121.4c-4 0-7.2-1.5-8.9-2.9l-0.3-0.3L50.2 106l3.8-3.6 11.4 12.1c0.9 0.6 6.3 4 12.9-1 2-1.5 3.1-3.2 3.3-5 0.3-3.2-2.1-6.1-2.2-6.1l-13.6-14 3.8-3.7 13.6 14.1c0.2 0.3 4.1 4.7 3.5 10.2-0.3 3.4-2.1 6.3-5.4 8.7C77.8 120.5 74.2 121.4 71 121.4z" data-fill-palette-color="accent"></path></g></g></g><g fill="#99abc1" data-fill-palette-color="accent"><g fill="#99abc1" data-fill-palette-color="accent"><g fill="#99abc1" data-fill-palette-color="accent"><path fill="#ffffff" d="M72 109.4c-0.5 0-0.9-0.2-1.3-0.5l-12.4-13c-0.7-0.7-0.6-1.8 0.1-2.5 0.7-0.7 1.8-0.6 2.5 0.1l12.4 13c0.7 0.7 0.6 1.8-0.1 2.5C72.8 109.2 72.4 109.4 72 109.4z" data-fill-palette-color="accent"></path></g></g></g><g fill="#99abc1" data-fill-palette-color="accent"><g fill="#99abc1" data-fill-palette-color="accent"><g fill="#99abc1" data-fill-palette-color="accent"><path fill="#ffffff" d="M30.1 109.7c-0.4 0-0.9-0.2-1.2-0.5-0.7-0.7-0.7-1.8 0-2.5L67.8 67c1.8-1.6 6.5-6 7.7-7.8 1.7-2.5 1.8-6 1.8-9.4C77.2 36.1 66.1 25 52.4 25S27.6 36.1 27.6 49.8c0 5.3 1 9.2 3 12 3 4.1 14.2 14.9 14.3 15 0.7 0.7 0.7 1.8 0 2.5-0.7 0.7-1.8 0.7-2.5 0C42 78.8 31 68.2 27.8 63.9c-2.5-3.4-3.7-8-3.7-14 0-15.6 12.7-28.3 28.3-28.3s28.3 12.7 28.3 28.3c0 3.9-0.2 8-2.4 11.3-1.6 2.5-7.5 7.8-8.2 8.4l-38.8 39.6C31 109.5 30.5 109.7 30.1 109.7z" data-fill-palette-color="accent"></path></g></g></g><g fill="#99abc1" data-fill-palette-color="accent"><g fill="#99abc1" data-fill-palette-color="accent"><g fill="#99abc1" data-fill-palette-color="accent"><path fill="#ffffff" d="M30.6 121.9c-3 0-6.2-0.9-9.5-3.4-3.2-2.5-5.1-5.4-5.5-8.8-0.7-5.5 2.8-10 2.9-10.2l0.2-0.3 13.1-12.7-5-5.3c-9.5-7.7-15-19.2-15-31.5C11.9 27.5 30 9.3 52.4 9.3s40.5 18.2 40.5 40.5c0 13.6-5.3 25-14.9 32.2l-36.6 35.7C39.3 119.7 35.3 121.9 30.6 121.9zM22.6 102.9c-0.4 0.6-2.1 3.3-1.7 6.2 0.3 1.9 1.4 3.7 3.5 5.3 7 5.3 13.2-0.2 13.4-0.4l37-36c8.4-6.2 12.9-15.9 12.9-28.1 0-19.4-15.8-35.3-35.3-35.3S17.1 30.4 17.1 49.8c0 10.7 4.8 20.8 13.2 27.5l0.3 0.2 5.1 5.4 12.9-12.5-10.6-11c-1.9-2.9-3-6.2-3-9.7 0-9.5 7.8-17.3 17.3-17.3s17.3 7.8 17.3 17.3c0 3.5-1 6.8-3 9.7l-0.3 0.4-10.6 11L22.6 102.9zM42.3 56.4l10.1 10.4 10.1-10.4c1.3-1.9 1.9-4.2 1.9-6.5 0-6.6-5.4-12-12-12s-12 5.4-12 12C40.4 52.2 41 54.4 42.3 56.4z" data-fill-palette-color="accent"></path></g></g></g></g></svg></g></svg></g><g></g></svg></g><defs></defs></svg><rect width="395.52" height="167.27216362945796" fill="none" stroke="none" visibility="hidden"></rect></g></svg></g></svg>